<mxfile host="app.diagrams.net" modified="2022-02-06T10:19:54.618Z" agent="5.0 (Windows NT 10.0; Win64; x64) AppleWebKit/537.36 (KHTML, like Gecko) Chrome/98.0.4758.80 Safari/537.36 Edg/98.0.1108.43" etag="NLszFg014amzua9ccFqR" version="16.5.3" type="github">
  <diagram id="-B3jU-nX_ELJhcBnxHz5" name="Page-1">
    <mxGraphModel dx="898" dy="510" grid="1" gridSize="10" guides="1" tooltips="1" connect="1" arrows="1" fold="1" page="1" pageScale="1" pageWidth="827" pageHeight="1169" math="0" shadow="0">
      <root>
        <mxCell id="0" />
        <mxCell id="1" parent="0" />
        <mxCell id="K0fkV404n5wf5iCCnifj-1" style="edgeStyle=none;rounded=0;orthogonalLoop=1;jettySize=auto;html=1;exitX=0;exitY=0.5;exitDx=0;exitDy=0;entryX=1;entryY=0.5;entryDx=0;entryDy=0;" parent="1" source="K0fkV404n5wf5iCCnifj-3" target="K0fkV404n5wf5iCCnifj-8" edge="1">
          <mxGeometry relative="1" as="geometry">
            <mxPoint x="640" y="730" as="targetPoint" />
          </mxGeometry>
        </mxCell>
        <mxCell id="K0fkV404n5wf5iCCnifj-2" style="edgeStyle=none;rounded=0;orthogonalLoop=1;jettySize=auto;html=1;exitX=1;exitY=0.5;exitDx=0;exitDy=0;" parent="1" source="K0fkV404n5wf5iCCnifj-3" edge="1">
          <mxGeometry relative="1" as="geometry">
            <mxPoint x="900" y="730" as="targetPoint" />
          </mxGeometry>
        </mxCell>
        <mxCell id="K0fkV404n5wf5iCCnifj-3" value="Яндекс Маршруты" style="rounded=1;whiteSpace=wrap;html=1;arcSize=22;" parent="1" vertex="1">
          <mxGeometry x="710" y="710" width="120" height="40" as="geometry" />
        </mxCell>
        <mxCell id="K0fkV404n5wf5iCCnifj-4" style="edgeStyle=none;rounded=0;orthogonalLoop=1;jettySize=auto;html=1;exitX=0;exitY=0.5;exitDx=0;exitDy=0;entryX=1;entryY=0.5;entryDx=0;entryDy=0;" parent="1" source="K0fkV404n5wf5iCCnifj-8" target="K0fkV404n5wf5iCCnifj-18" edge="1">
          <mxGeometry relative="1" as="geometry" />
        </mxCell>
        <mxCell id="K0fkV404n5wf5iCCnifj-5" style="rounded=0;orthogonalLoop=1;jettySize=auto;html=1;exitX=0;exitY=0.5;exitDx=0;exitDy=0;entryX=1;entryY=0.5;entryDx=0;entryDy=0;" parent="1" source="K0fkV404n5wf5iCCnifj-8" target="K0fkV404n5wf5iCCnifj-21" edge="1">
          <mxGeometry relative="1" as="geometry" />
        </mxCell>
        <mxCell id="K0fkV404n5wf5iCCnifj-6" style="edgeStyle=none;rounded=0;orthogonalLoop=1;jettySize=auto;html=1;exitX=0;exitY=0.5;exitDx=0;exitDy=0;entryX=1;entryY=0.5;entryDx=0;entryDy=0;" parent="1" source="K0fkV404n5wf5iCCnifj-8" target="K0fkV404n5wf5iCCnifj-32" edge="1">
          <mxGeometry relative="1" as="geometry" />
        </mxCell>
        <mxCell id="K0fkV404n5wf5iCCnifj-8" value="Интерфейс" style="rounded=1;whiteSpace=wrap;html=1;arcSize=22;" parent="1" vertex="1">
          <mxGeometry x="510" y="710" width="120" height="40" as="geometry" />
        </mxCell>
        <mxCell id="K0fkV404n5wf5iCCnifj-9" style="edgeStyle=none;rounded=0;orthogonalLoop=1;jettySize=auto;html=1;exitX=1;exitY=0.5;exitDx=0;exitDy=0;" parent="1" source="K0fkV404n5wf5iCCnifj-11" edge="1">
          <mxGeometry relative="1" as="geometry">
            <mxPoint x="1330" y="580" as="targetPoint" />
          </mxGeometry>
        </mxCell>
        <mxCell id="K0fkV404n5wf5iCCnifj-10" style="edgeStyle=none;rounded=0;orthogonalLoop=1;jettySize=auto;html=1;exitX=1;exitY=0.5;exitDx=0;exitDy=0;" parent="1" source="K0fkV404n5wf5iCCnifj-11" edge="1">
          <mxGeometry relative="1" as="geometry">
            <mxPoint x="1330" y="620" as="targetPoint" />
          </mxGeometry>
        </mxCell>
        <mxCell id="K0fkV404n5wf5iCCnifj-11" value="Проверка правильности ввода данных в поля" style="rounded=1;whiteSpace=wrap;html=1;arcSize=22;" parent="1" vertex="1">
          <mxGeometry x="1140" y="600" width="120" height="40" as="geometry" />
        </mxCell>
        <mxCell id="K0fkV404n5wf5iCCnifj-12" style="edgeStyle=none;rounded=0;orthogonalLoop=1;jettySize=auto;html=1;exitX=1;exitY=0.5;exitDx=0;exitDy=0;" parent="1" source="K0fkV404n5wf5iCCnifj-14" edge="1">
          <mxGeometry relative="1" as="geometry">
            <mxPoint x="1330" y="710" as="targetPoint" />
            <mxPoint x="1270" y="830" as="sourcePoint" />
          </mxGeometry>
        </mxCell>
        <mxCell id="K0fkV404n5wf5iCCnifj-13" style="edgeStyle=none;rounded=0;orthogonalLoop=1;jettySize=auto;html=1;exitX=1;exitY=0.5;exitDx=0;exitDy=0;" parent="1" source="K0fkV404n5wf5iCCnifj-14" edge="1">
          <mxGeometry relative="1" as="geometry">
            <mxPoint x="1330" y="670" as="targetPoint" />
          </mxGeometry>
        </mxCell>
        <mxCell id="K0fkV404n5wf5iCCnifj-14" value="Выбор вида транспорта и режима" style="rounded=1;whiteSpace=wrap;html=1;arcSize=22;" parent="1" vertex="1">
          <mxGeometry x="1130" y="680" width="120" height="40" as="geometry" />
        </mxCell>
        <mxCell id="K0fkV404n5wf5iCCnifj-16" style="edgeStyle=none;rounded=0;orthogonalLoop=1;jettySize=auto;html=1;exitX=0;exitY=0.5;exitDx=0;exitDy=0;entryX=1;entryY=0.5;entryDx=0;entryDy=0;" parent="1" source="K0fkV404n5wf5iCCnifj-18" target="xxuNc1f83KV-wvnaJaRy-2" edge="1">
          <mxGeometry relative="1" as="geometry">
            <mxPoint x="210" y="780" as="targetPoint" />
          </mxGeometry>
        </mxCell>
        <mxCell id="K0fkV404n5wf5iCCnifj-17" style="edgeStyle=none;rounded=0;orthogonalLoop=1;jettySize=auto;html=1;exitX=0;exitY=0.5;exitDx=0;exitDy=0;entryX=1;entryY=0.5;entryDx=0;entryDy=0;" parent="1" source="K0fkV404n5wf5iCCnifj-18" edge="1">
          <mxGeometry relative="1" as="geometry">
            <mxPoint x="200" y="720" as="targetPoint" />
          </mxGeometry>
        </mxCell>
        <mxCell id="K0fkV404n5wf5iCCnifj-18" value="Панель выбора времени" style="rounded=1;whiteSpace=wrap;html=1;arcSize=22;" parent="1" vertex="1">
          <mxGeometry x="290" y="740" width="120" height="40" as="geometry" />
        </mxCell>
        <mxCell id="K0fkV404n5wf5iCCnifj-20" style="edgeStyle=none;rounded=0;orthogonalLoop=1;jettySize=auto;html=1;exitX=0;exitY=0.25;exitDx=0;exitDy=0;entryX=1;entryY=0.5;entryDx=0;entryDy=0;" parent="1" source="K0fkV404n5wf5iCCnifj-21" target="xxuNc1f83KV-wvnaJaRy-4" edge="1">
          <mxGeometry relative="1" as="geometry">
            <mxPoint x="210" y="580" as="targetPoint" />
          </mxGeometry>
        </mxCell>
        <mxCell id="K0fkV404n5wf5iCCnifj-21" value="Панель выбора адреса" style="rounded=1;whiteSpace=wrap;html=1;arcSize=22;" parent="1" vertex="1">
          <mxGeometry x="290" y="570" width="120" height="40" as="geometry" />
        </mxCell>
        <mxCell id="K0fkV404n5wf5iCCnifj-23" style="edgeStyle=none;rounded=0;orthogonalLoop=1;jettySize=auto;html=1;exitX=1;exitY=0.5;exitDx=0;exitDy=0;entryX=0;entryY=0.5;entryDx=0;entryDy=0;" parent="1" source="K0fkV404n5wf5iCCnifj-27" target="K0fkV404n5wf5iCCnifj-14" edge="1">
          <mxGeometry relative="1" as="geometry" />
        </mxCell>
        <mxCell id="K0fkV404n5wf5iCCnifj-24" style="edgeStyle=none;rounded=0;orthogonalLoop=1;jettySize=auto;html=1;exitX=1;exitY=0.5;exitDx=0;exitDy=0;entryX=0;entryY=0.5;entryDx=0;entryDy=0;" parent="1" source="K0fkV404n5wf5iCCnifj-27" target="K0fkV404n5wf5iCCnifj-29" edge="1">
          <mxGeometry relative="1" as="geometry">
            <mxPoint x="1130" y="730" as="targetPoint" />
          </mxGeometry>
        </mxCell>
        <mxCell id="K0fkV404n5wf5iCCnifj-25" style="edgeStyle=none;rounded=0;orthogonalLoop=1;jettySize=auto;html=1;exitX=1;exitY=0.5;exitDx=0;exitDy=0;entryX=0;entryY=0.5;entryDx=0;entryDy=0;" parent="1" source="K0fkV404n5wf5iCCnifj-27" target="K0fkV404n5wf5iCCnifj-11" edge="1">
          <mxGeometry relative="1" as="geometry">
            <mxPoint x="1140" y="850" as="targetPoint" />
          </mxGeometry>
        </mxCell>
        <mxCell id="K0fkV404n5wf5iCCnifj-26" style="edgeStyle=none;rounded=0;orthogonalLoop=1;jettySize=auto;html=1;exitX=1;exitY=0.5;exitDx=0;exitDy=0;" parent="1" source="K0fkV404n5wf5iCCnifj-27" edge="1">
          <mxGeometry relative="1" as="geometry">
            <mxPoint x="1130" y="770" as="targetPoint" />
          </mxGeometry>
        </mxCell>
        <mxCell id="K0fkV404n5wf5iCCnifj-27" value="Логика" style="rounded=1;whiteSpace=wrap;html=1;arcSize=22;" parent="1" vertex="1">
          <mxGeometry x="900" y="710" width="120" height="40" as="geometry" />
        </mxCell>
        <mxCell id="K0fkV404n5wf5iCCnifj-28" style="edgeStyle=none;rounded=0;orthogonalLoop=1;jettySize=auto;html=1;exitX=1;exitY=0.5;exitDx=0;exitDy=0;" parent="1" source="K0fkV404n5wf5iCCnifj-29" edge="1">
          <mxGeometry relative="1" as="geometry">
            <mxPoint x="1330" y="810" as="targetPoint" />
          </mxGeometry>
        </mxCell>
        <mxCell id="K0fkV404n5wf5iCCnifj-29" value="Расчёт времени и стоимости" style="rounded=1;whiteSpace=wrap;html=1;arcSize=22;" parent="1" vertex="1">
          <mxGeometry x="1130" y="790" width="120" height="40" as="geometry" />
        </mxCell>
        <mxCell id="K0fkV404n5wf5iCCnifj-30" style="rounded=0;orthogonalLoop=1;jettySize=auto;html=1;exitX=0;exitY=0.5;exitDx=0;exitDy=0;entryX=1;entryY=0.5;entryDx=0;entryDy=0;" parent="1" edge="1" target="GE7ch425G3Su6_HWM75W-6" source="K0fkV404n5wf5iCCnifj-32">
          <mxGeometry relative="1" as="geometry">
            <mxPoint x="210" y="930" as="targetPoint" />
            <mxPoint x="280" y="920" as="sourcePoint" />
          </mxGeometry>
        </mxCell>
        <mxCell id="K0fkV404n5wf5iCCnifj-32" value="Панель выбора&lt;br&gt;вида транспорта и режима" style="rounded=1;whiteSpace=wrap;html=1;arcSize=22;" parent="1" vertex="1">
          <mxGeometry x="290" y="900" width="120" height="40" as="geometry" />
        </mxCell>
        <mxCell id="xxuNc1f83KV-wvnaJaRy-1" value="2 символов" style="rounded=1;whiteSpace=wrap;html=1;arcSize=22;" parent="1" vertex="1">
          <mxGeometry x="80" y="710" width="120" height="40" as="geometry" />
        </mxCell>
        <mxCell id="xxuNc1f83KV-wvnaJaRy-2" value="Строка, содержащая цифры" style="rounded=1;whiteSpace=wrap;html=1;arcSize=22;" parent="1" vertex="1">
          <mxGeometry x="80" y="760" width="120" height="40" as="geometry" />
        </mxCell>
        <mxCell id="xxuNc1f83KV-wvnaJaRy-4" value="2-25 символов" style="rounded=1;whiteSpace=wrap;html=1;arcSize=22;" parent="1" vertex="1">
          <mxGeometry x="80" y="520" width="120" height="40" as="geometry" />
        </mxCell>
        <mxCell id="xxuNc1f83KV-wvnaJaRy-6" value="Строка, содержащая буквы" style="rounded=1;whiteSpace=wrap;html=1;arcSize=22;" parent="1" vertex="1">
          <mxGeometry x="80" y="470" width="120" height="40" as="geometry" />
        </mxCell>
        <mxCell id="xxuNc1f83KV-wvnaJaRy-7" style="edgeStyle=none;rounded=0;orthogonalLoop=1;jettySize=auto;html=1;entryX=1;entryY=0.5;entryDx=0;entryDy=0;" parent="1" target="xxuNc1f83KV-wvnaJaRy-6" edge="1">
          <mxGeometry relative="1" as="geometry">
            <mxPoint x="210" y="575" as="targetPoint" />
            <mxPoint x="290" y="570" as="sourcePoint" />
            <Array as="points" />
          </mxGeometry>
        </mxCell>
        <mxCell id="xxuNc1f83KV-wvnaJaRy-8" value="Поле заполнено" style="rounded=1;whiteSpace=wrap;html=1;arcSize=22;" parent="1" vertex="1">
          <mxGeometry x="80" y="810" width="120" height="40" as="geometry" />
        </mxCell>
        <mxCell id="xxuNc1f83KV-wvnaJaRy-9" style="edgeStyle=none;rounded=0;orthogonalLoop=1;jettySize=auto;html=1;exitX=0;exitY=0.75;exitDx=0;exitDy=0;entryX=1;entryY=0.5;entryDx=0;entryDy=0;" parent="1" source="K0fkV404n5wf5iCCnifj-18" target="xxuNc1f83KV-wvnaJaRy-8" edge="1">
          <mxGeometry relative="1" as="geometry">
            <mxPoint x="210" y="780" as="targetPoint" />
            <mxPoint x="290" y="770" as="sourcePoint" />
          </mxGeometry>
        </mxCell>
        <mxCell id="xxuNc1f83KV-wvnaJaRy-10" value="Поле заполнено" style="rounded=1;whiteSpace=wrap;html=1;arcSize=22;" parent="1" vertex="1">
          <mxGeometry x="80" y="570" width="120" height="40" as="geometry" />
        </mxCell>
        <mxCell id="xxuNc1f83KV-wvnaJaRy-11" style="edgeStyle=none;rounded=0;orthogonalLoop=1;jettySize=auto;html=1;entryX=1;entryY=0.5;entryDx=0;entryDy=0;exitX=0;exitY=0.75;exitDx=0;exitDy=0;" parent="1" target="xxuNc1f83KV-wvnaJaRy-10" edge="1" source="K0fkV404n5wf5iCCnifj-21">
          <mxGeometry relative="1" as="geometry">
            <mxPoint x="210" y="600" as="targetPoint" />
            <mxPoint x="290" y="615" as="sourcePoint" />
          </mxGeometry>
        </mxCell>
        <mxCell id="GE7ch425G3Su6_HWM75W-6" value="Кнопка выбора режима" style="rounded=1;whiteSpace=wrap;html=1;arcSize=22;" vertex="1" parent="1">
          <mxGeometry x="80" y="900" width="120" height="40" as="geometry" />
        </mxCell>
        <mxCell id="GE7ch425G3Su6_HWM75W-7" value="Кнопка выбора вида транспорта" style="rounded=1;whiteSpace=wrap;html=1;arcSize=22;" vertex="1" parent="1">
          <mxGeometry x="80" y="950" width="120" height="40" as="geometry" />
        </mxCell>
        <mxCell id="GE7ch425G3Su6_HWM75W-8" style="rounded=0;orthogonalLoop=1;jettySize=auto;html=1;exitX=0;exitY=0.75;exitDx=0;exitDy=0;entryX=1;entryY=0.5;entryDx=0;entryDy=0;" edge="1" parent="1" source="K0fkV404n5wf5iCCnifj-32" target="GE7ch425G3Su6_HWM75W-7">
          <mxGeometry relative="1" as="geometry">
            <mxPoint x="210" y="930" as="targetPoint" />
            <mxPoint x="300" y="930" as="sourcePoint" />
          </mxGeometry>
        </mxCell>
        <mxCell id="GE7ch425G3Su6_HWM75W-9" style="edgeStyle=none;rounded=0;orthogonalLoop=1;jettySize=auto;html=1;exitX=0;exitY=0.5;exitDx=0;exitDy=0;entryX=1;entryY=0.25;entryDx=0;entryDy=0;" edge="1" parent="1" target="GE7ch425G3Su6_HWM75W-10">
          <mxGeometry relative="1" as="geometry">
            <mxPoint x="540" y="750" as="sourcePoint" />
            <mxPoint x="400" y="1010" as="targetPoint" />
          </mxGeometry>
        </mxCell>
        <mxCell id="GE7ch425G3Su6_HWM75W-11" style="edgeStyle=orthogonalEdgeStyle;rounded=0;orthogonalLoop=1;jettySize=auto;html=1;entryX=1;entryY=0.5;entryDx=0;entryDy=0;" edge="1" parent="1" source="GE7ch425G3Su6_HWM75W-10" target="GE7ch425G3Su6_HWM75W-12">
          <mxGeometry relative="1" as="geometry">
            <mxPoint x="190" y="1050" as="targetPoint" />
          </mxGeometry>
        </mxCell>
        <mxCell id="GE7ch425G3Su6_HWM75W-16" style="edgeStyle=orthogonalEdgeStyle;rounded=0;orthogonalLoop=1;jettySize=auto;html=1;exitX=0.5;exitY=1;exitDx=0;exitDy=0;entryX=0.5;entryY=0;entryDx=0;entryDy=0;" edge="1" parent="1" source="GE7ch425G3Su6_HWM75W-10" target="GE7ch425G3Su6_HWM75W-15">
          <mxGeometry relative="1" as="geometry" />
        </mxCell>
        <mxCell id="GE7ch425G3Su6_HWM75W-10" value="Ползунок масштаба карты" style="rounded=1;whiteSpace=wrap;html=1;arcSize=22;" vertex="1" parent="1">
          <mxGeometry x="294" y="1030" width="120" height="40" as="geometry" />
        </mxCell>
        <mxCell id="GE7ch425G3Su6_HWM75W-12" value="Кнопка увеличения масштаба" style="rounded=1;whiteSpace=wrap;html=1;arcSize=22;" vertex="1" parent="1">
          <mxGeometry x="80" y="1030" width="120" height="40" as="geometry" />
        </mxCell>
        <mxCell id="GE7ch425G3Su6_HWM75W-13" value="Кнопка уменьшения масштаба" style="rounded=1;whiteSpace=wrap;html=1;arcSize=22;" vertex="1" parent="1">
          <mxGeometry x="80" y="1090" width="120" height="40" as="geometry" />
        </mxCell>
        <mxCell id="GE7ch425G3Su6_HWM75W-14" style="rounded=0;orthogonalLoop=1;jettySize=auto;html=1;exitX=0.25;exitY=1;exitDx=0;exitDy=0;entryX=1;entryY=0.5;entryDx=0;entryDy=0;" edge="1" parent="1" source="GE7ch425G3Su6_HWM75W-10" target="GE7ch425G3Su6_HWM75W-13">
          <mxGeometry relative="1" as="geometry">
            <mxPoint x="210" y="980" as="targetPoint" />
            <mxPoint x="300" y="940" as="sourcePoint" />
            <Array as="points" />
          </mxGeometry>
        </mxCell>
        <mxCell id="GE7ch425G3Su6_HWM75W-15" value="Кнопка передвижения масштаба" style="rounded=1;whiteSpace=wrap;html=1;arcSize=22;" vertex="1" parent="1">
          <mxGeometry x="294" y="1110" width="120" height="40" as="geometry" />
        </mxCell>
        <mxCell id="GE7ch425G3Su6_HWM75W-18" style="rounded=0;orthogonalLoop=1;jettySize=auto;html=1;exitX=0.25;exitY=0;exitDx=0;exitDy=0;entryX=0.917;entryY=1.012;entryDx=0;entryDy=0;entryPerimeter=0;" edge="1" parent="1" source="K0fkV404n5wf5iCCnifj-8" target="GE7ch425G3Su6_HWM75W-19">
          <mxGeometry relative="1" as="geometry">
            <mxPoint x="519.9999999999998" y="740" as="sourcePoint" />
            <mxPoint x="390" y="460" as="targetPoint" />
            <Array as="points" />
          </mxGeometry>
        </mxCell>
        <mxCell id="GE7ch425G3Su6_HWM75W-20" style="edgeStyle=orthogonalEdgeStyle;rounded=0;orthogonalLoop=1;jettySize=auto;html=1;entryX=1;entryY=0.5;entryDx=0;entryDy=0;" edge="1" parent="1" source="GE7ch425G3Su6_HWM75W-19" target="GE7ch425G3Su6_HWM75W-21">
          <mxGeometry relative="1" as="geometry">
            <mxPoint x="200" y="390" as="targetPoint" />
          </mxGeometry>
        </mxCell>
        <mxCell id="GE7ch425G3Su6_HWM75W-19" value="Баннер &quot;Яндекс Маршруты&quot;" style="rounded=1;whiteSpace=wrap;html=1;arcSize=22;" vertex="1" parent="1">
          <mxGeometry x="290" y="330" width="120" height="40" as="geometry" />
        </mxCell>
        <mxCell id="GE7ch425G3Su6_HWM75W-21" value="Кнопка &quot;Яндекс Маршруты&quot;" style="rounded=1;whiteSpace=wrap;html=1;arcSize=22;" vertex="1" parent="1">
          <mxGeometry x="80" y="330" width="120" height="40" as="geometry" />
        </mxCell>
        <mxCell id="GE7ch425G3Su6_HWM75W-23" style="rounded=0;orthogonalLoop=1;jettySize=auto;html=1;exitX=0.5;exitY=0;exitDx=0;exitDy=0;" edge="1" parent="1" source="K0fkV404n5wf5iCCnifj-8">
          <mxGeometry relative="1" as="geometry">
            <mxPoint x="639.98" y="680" as="sourcePoint" />
            <mxPoint x="570" y="600" as="targetPoint" />
            <Array as="points" />
          </mxGeometry>
        </mxCell>
        <mxCell id="GE7ch425G3Su6_HWM75W-25" style="edgeStyle=orthogonalEdgeStyle;rounded=0;orthogonalLoop=1;jettySize=auto;html=1;exitX=0.25;exitY=0;exitDx=0;exitDy=0;" edge="1" parent="1" source="GE7ch425G3Su6_HWM75W-24">
          <mxGeometry relative="1" as="geometry">
            <mxPoint x="500" y="360" as="targetPoint" />
          </mxGeometry>
        </mxCell>
        <mxCell id="GE7ch425G3Su6_HWM75W-27" style="edgeStyle=orthogonalEdgeStyle;rounded=0;orthogonalLoop=1;jettySize=auto;html=1;entryX=0.5;entryY=1;entryDx=0;entryDy=0;" edge="1" parent="1" source="GE7ch425G3Su6_HWM75W-24" target="GE7ch425G3Su6_HWM75W-28">
          <mxGeometry relative="1" as="geometry">
            <mxPoint x="630" y="360" as="targetPoint" />
          </mxGeometry>
        </mxCell>
        <mxCell id="GE7ch425G3Su6_HWM75W-24" value="Карта построения машрута" style="rounded=1;whiteSpace=wrap;html=1;arcSize=22;" vertex="1" parent="1">
          <mxGeometry x="510" y="560" width="120" height="40" as="geometry" />
        </mxCell>
        <mxCell id="GE7ch425G3Su6_HWM75W-26" value="Кнопка &quot;Метро&quot;" style="rounded=1;whiteSpace=wrap;html=1;arcSize=22;" vertex="1" parent="1">
          <mxGeometry x="440" y="320" width="120" height="40" as="geometry" />
        </mxCell>
        <mxCell id="GE7ch425G3Su6_HWM75W-39" style="edgeStyle=orthogonalEdgeStyle;rounded=0;orthogonalLoop=1;jettySize=auto;html=1;entryX=0.5;entryY=1;entryDx=0;entryDy=0;" edge="1" parent="1" source="GE7ch425G3Su6_HWM75W-28" target="GE7ch425G3Su6_HWM75W-35">
          <mxGeometry relative="1" as="geometry">
            <Array as="points">
              <mxPoint x="690" y="230" />
              <mxPoint x="630" y="230" />
            </Array>
          </mxGeometry>
        </mxCell>
        <mxCell id="GE7ch425G3Su6_HWM75W-40" style="edgeStyle=orthogonalEdgeStyle;rounded=0;orthogonalLoop=1;jettySize=auto;html=1;entryX=0.5;entryY=1;entryDx=0;entryDy=0;" edge="1" parent="1" source="GE7ch425G3Su6_HWM75W-28" target="GE7ch425G3Su6_HWM75W-36">
          <mxGeometry relative="1" as="geometry" />
        </mxCell>
        <mxCell id="GE7ch425G3Su6_HWM75W-42" style="edgeStyle=orthogonalEdgeStyle;rounded=0;orthogonalLoop=1;jettySize=auto;html=1;entryX=0.5;entryY=1;entryDx=0;entryDy=0;" edge="1" parent="1" source="GE7ch425G3Su6_HWM75W-28" target="GE7ch425G3Su6_HWM75W-34">
          <mxGeometry relative="1" as="geometry" />
        </mxCell>
        <mxCell id="GE7ch425G3Su6_HWM75W-28" value="Поле выбранной станции" style="rounded=1;whiteSpace=wrap;html=1;arcSize=22;" vertex="1" parent="1">
          <mxGeometry x="660" y="320" width="120" height="40" as="geometry" />
        </mxCell>
        <mxCell id="GE7ch425G3Su6_HWM75W-29" value="Строка, содержащая спецсимволы" style="rounded=1;whiteSpace=wrap;html=1;arcSize=22;" vertex="1" parent="1">
          <mxGeometry x="80" y="420" width="120" height="40" as="geometry" />
        </mxCell>
        <mxCell id="GE7ch425G3Su6_HWM75W-30" style="edgeStyle=none;rounded=0;orthogonalLoop=1;jettySize=auto;html=1;exitX=0.25;exitY=0;exitDx=0;exitDy=0;entryX=1;entryY=0.5;entryDx=0;entryDy=0;" edge="1" parent="1" source="K0fkV404n5wf5iCCnifj-21" target="GE7ch425G3Su6_HWM75W-29">
          <mxGeometry relative="1" as="geometry">
            <mxPoint x="210" y="590" as="targetPoint" />
            <mxPoint x="300" y="590" as="sourcePoint" />
          </mxGeometry>
        </mxCell>
        <mxCell id="GE7ch425G3Su6_HWM75W-31" value="Строка содержащая цифры" style="rounded=1;whiteSpace=wrap;html=1;arcSize=22;" vertex="1" parent="1">
          <mxGeometry x="80" y="620" width="120" height="40" as="geometry" />
        </mxCell>
        <mxCell id="GE7ch425G3Su6_HWM75W-32" style="edgeStyle=none;rounded=0;orthogonalLoop=1;jettySize=auto;html=1;entryX=1;entryY=0.5;entryDx=0;entryDy=0;exitX=0;exitY=0.75;exitDx=0;exitDy=0;" edge="1" parent="1" target="GE7ch425G3Su6_HWM75W-31">
          <mxGeometry relative="1" as="geometry">
            <mxPoint x="210" y="600" as="targetPoint" />
            <mxPoint x="300" y="610" as="sourcePoint" />
          </mxGeometry>
        </mxCell>
        <mxCell id="GE7ch425G3Su6_HWM75W-33" value="2-25 символов" style="rounded=1;whiteSpace=wrap;html=1;arcSize=22;" vertex="1" parent="1">
          <mxGeometry x="750" y="170" width="120" height="40" as="geometry" />
        </mxCell>
        <mxCell id="GE7ch425G3Su6_HWM75W-34" value="Строка, содержащая буквы" style="rounded=1;whiteSpace=wrap;html=1;arcSize=22;" vertex="1" parent="1">
          <mxGeometry x="790" y="240" width="120" height="40" as="geometry" />
        </mxCell>
        <mxCell id="GE7ch425G3Su6_HWM75W-35" value="Поле заполнено" style="rounded=1;whiteSpace=wrap;html=1;arcSize=22;" vertex="1" parent="1">
          <mxGeometry x="570" y="170" width="120" height="40" as="geometry" />
        </mxCell>
        <mxCell id="GE7ch425G3Su6_HWM75W-36" value="Строка, содержащая спецсимволы" style="rounded=1;whiteSpace=wrap;html=1;arcSize=22;" vertex="1" parent="1">
          <mxGeometry x="660" y="120" width="120" height="40" as="geometry" />
        </mxCell>
        <mxCell id="GE7ch425G3Su6_HWM75W-37" value="Строка содержащая цифры" style="rounded=1;whiteSpace=wrap;html=1;arcSize=22;" vertex="1" parent="1">
          <mxGeometry x="550" y="240" width="120" height="40" as="geometry" />
        </mxCell>
        <mxCell id="GE7ch425G3Su6_HWM75W-38" style="edgeStyle=orthogonalEdgeStyle;rounded=0;orthogonalLoop=1;jettySize=auto;html=1;exitX=0;exitY=0.5;exitDx=0;exitDy=0;entryX=0.5;entryY=1;entryDx=0;entryDy=0;" edge="1" parent="1" source="GE7ch425G3Su6_HWM75W-28" target="GE7ch425G3Su6_HWM75W-37">
          <mxGeometry relative="1" as="geometry">
            <mxPoint x="610" y="319.9999999999999" as="targetPoint" />
            <mxPoint x="650" y="519.9999999999999" as="sourcePoint" />
          </mxGeometry>
        </mxCell>
        <mxCell id="GE7ch425G3Su6_HWM75W-41" style="edgeStyle=orthogonalEdgeStyle;rounded=0;orthogonalLoop=1;jettySize=auto;html=1;exitX=0.75;exitY=0;exitDx=0;exitDy=0;entryX=0.5;entryY=1;entryDx=0;entryDy=0;" edge="1" parent="1" source="GE7ch425G3Su6_HWM75W-28" target="GE7ch425G3Su6_HWM75W-33">
          <mxGeometry relative="1" as="geometry">
            <mxPoint x="700.0344827586207" y="330" as="sourcePoint" />
            <mxPoint x="780" y="230" as="targetPoint" />
            <Array as="points">
              <mxPoint x="750" y="230" />
              <mxPoint x="810" y="230" />
            </Array>
          </mxGeometry>
        </mxCell>
      </root>
    </mxGraphModel>
  </diagram>
</mxfile>
